PathFileType	4	(X/Y/Z)	
DataRate	CameraRate	NumFrames	NumMarkers	Units	OrigDataRate	OrigDataStartFrame	OrigNumFrames
100	100	5	41	m	100	68	110
Frame#	Time	LELB			LSHO			RSHO			LUPA			LBHD			RUPA			RBHD			C7			RWRB			LWRB			RELB			RBAK			LANK			LKNE			LPSI			T10			LBTO			RPSI			RKNE			LTIB			RTIB			LTHI			RBTO			RTOE			RANK			RHEE			RTHI			LHEE			LFRM			LWRA			RFRM			LFIN			RFIN			RFHD			RWRA			RASI			LTOE			STRN			CLAV			LASI			LFHD			
		X1	Y1	Z1	X2	Y2	Z2	X3	Y3	Z3	X4	Y4	Z4	X5	Y5	Z5	X6	Y6	Z6	X7	Y7	Z7	X8	Y8	Z8	X9	Y9	Z9	X10	Y10	Z10	X11	Y11	Z11	X12	Y12	Z12	X13	Y13	Z13	X14	Y14	Z14	X15	Y15	Z15	X16	Y16	Z16	X17	Y17	Z17	X18	Y18	Z18	X19	Y19	Z19	X20	Y20	Z20	X21	Y21	Z21	X22	Y22	Z22	X23	Y23	Z23	X24	Y24	Z24	X25	Y25	Z25	X26	Y26	Z26	X27	Y27	Z27	X28	Y28	Z28	X29	Y29	Z29	X30	Y30	Z30	X31	Y31	Z31	X32	Y32	Z32	X33	Y33	Z33	X34	Y34	Z34	X35	Y35	Z35	X36	Y36	Z36	X37	Y37	Z37	X38	Y38	Z38	X39	Y39	Z39	X40	Y40	Z40	X41	Y41	Z41	X42	Y42	Z42	X43	Y43	Z43	

69	0.68	0.535572143554688	1.18919750976563	-1.02147373248459	0.448388641357422	1.52535827636719	-1.06458371783615	0.0684416275024414	1.50678076171875	-1.08679462481857	0.496693572998047	1.38206591796875	-1.05114240313889	0.329167205810547	1.65833178710938	-1.08539868975998	0.00383303475379944	1.24230407714844	-1.09574314166428	0.178723068237305	1.66162170410156	-1.08983234454514	0.255190902709961	1.55600280761719	-1.13735984088303	0.00500617790222168	0.876596374511719	-1.04675637103439	0.534172180175781	0.915451904296875	-0.970091835511934	-0.0115475597381592	1.14765368652344	-1.08729901934982	0.120034080505371	1.44833630371094	-1.1787756123674	0.377644622802734	0.228251663208008	-1.34062473346115	0.432059844970703	0.511634002685547	-0.996604927552949	0.308397766113281	1.09175500488281	-1.16693085528732	0.285632598876953	1.27443249511719	-1.19939859820725	0.32862158203125	0.0527170677185059	-1.24056137896897	0.240762741088867	1.09003942871094	-1.16375406695725	0.142327835083008	0.509120391845703	-0.960957481874239	0.432157806396484	0.400360137939453	-1.09506534625412	0.14208447265625	0.346242462158203	-0.967247459901582	0.445301818847656	0.662823669433594	-0.993758430970918	0.223306793212891	0.0484731063842773	-0.758705170167696	0.205351333618164	0.0460977668762207	-0.817361904634248	0.206225936889648	0.0641668167114258	-0.976509026063692	0.254028533935547	0.0282901992797852	-1.03253066302658	0.120720115661621	0.670687805175781	-0.967628731263887	0.3405380859375	0.261041168212891	-1.40443741656662	0.522609985351563	0.957080871582031	-0.934886528505098	0.473352233886719	0.926664489746094	-0.923365639222871	-0.00134713125228882	0.929446655273438	-1.02115222979904	0.508526092529297	0.853353088378906	-0.873411247743379	0.00851885414123535	0.79668359375	-0.955336449159395	0.184956069946289	1.73774169921875	-0.958607155336152	0.0514024963378906	0.891667358398437	-0.98605918170334	0.149973602294922	1.06084020996094	-0.979872566713106	0.350906341552734	0.089341178894043	-1.27999414874436	0.272649291992188	1.29380285644531	-0.962162788881074	0.259184326171875	1.42483715820312	-0.987921791566621	0.410308197021484	1.04697985839844	-0.996284508241426	0.312183166503906	1.73418432617188	-0.950904015077363
70	0.69	0.5355751953125	1.19092626953125	-1.02242140617721	0.447911895751953	1.52706677246094	-1.06351283684127	0.0678321533203125	1.50908020019531	-1.08431889763228	0.496435089111328	1.38380859375	-1.05130745354049	0.32888427734375	1.66023120117187	-1.08332707634322	0.00304092025756836	1.24453759765625	-1.09164427605025	0.178213500976562	1.66343859863281	-1.08788353386275	0.254479431152344	1.5581396484375	-1.13542976799361	0.00462027025222778	0.878930969238281	-1.0420440410649	0.5341416015625	0.916860900878906	-0.972028812793417	-0.0122825517654419	1.14997094726562	-1.0830865978276	0.118874458312988	1.45073779296875	-1.17663463249557	0.377837615966797	0.225402465820313	-1.32164717522017	0.430941162109375	0.515938781738281	-0.983851307300253	0.306827545166016	1.09380297851562	-1.16655983391158	0.284127777099609	1.27667370605469	-1.19847374382369	0.326296508789063	0.0536941337585449	-1.21536256828658	0.239363647460937	1.09201818847656	-1.16311214104049	0.142931884765625	0.509440979003906	-0.968627750781698	0.431810760498047	0.402452331542969	-1.07857594719283	0.1427919921875	0.346755126953125	-0.976800861743612	0.444224670410156	0.667179870605469	-0.984189213184042	0.223946350097656	0.0474741516113281	-0.770667755511923	0.206051986694336	0.0455341491699219	-0.82930371632926	0.206585372924805	0.0644124526977539	-0.98838194694869	0.254194290161133	0.0284455242156983	-1.0445889629399	0.120981925964355	0.671169250488281	-0.972412235644979	0.341771331787109	0.256029266357422	-1.38751424064986	0.522743896484375	0.958438171386719	-0.936676395801229	0.473488800048828	0.928049865722656	-0.925096897510214	-0.00148798549175262	0.931940979003906	-1.01656534233443	0.508565093994141	0.854647583007813	-0.875361599353475	0.00882161712646484	0.7993994140625	-0.950240505603475	0.184673141479492	1.73967333984375	-0.956730778125448	0.0515532112121582	0.894115844726562	-0.981860401538534	0.14835498046875	1.06226257324219	-0.979399387744589	0.349141632080078	0.089977035522461	-1.25567757072799	0.272247650146484	1.29536389160156	-0.961202335742635	0.258955780029297	1.42646813964844	-0.986472492602987	0.409261993408203	1.05011804199219	-0.995834186938925	0.311956481933594	1.73610217285156	-0.949181286243124
71	0.7	0.5353359375	1.19256591796875	-1.02338613919599	0.447450958251953	1.52869836425781	-1.06249946622236	0.0673129119873047	1.51139172363281	-1.08195385770185	0.496079284667969	1.38549975585938	-1.05162654141767	0.328697784423828	1.66202172851563	-1.08134172086103	0.00225144076347351	1.24685510253906	-1.08756085233076	0.177824234008789	1.66518054199219	-1.08594961575849	0.253802307128906	1.56010119628906	-1.13361779813154	0.00425635957717896	0.881384704589844	-1.03717372159345	0.534172912597656	0.918202941894531	-0.974039383214548	-0.0129657278060913	1.15237902832031	-1.07885095242842	0.117824081420898	1.45301977539063	-1.17458483914717	0.377863128662109	0.220849380493164	-1.30182012967451	0.430238983154297	0.519958129882813	-0.971385559362009	0.305199188232422	1.095697265625	-1.1662392275749	0.282549926757812	1.27874938964844	-1.19750445584638	0.324271697998047	0.0538784713745117	-1.1886193850456	0.237895080566406	1.0939306640625	-1.16245550565107	0.143544906616211	0.509675964355469	-0.976332031529978	0.431316864013672	0.40459130859375	-1.0624579775749	0.143532272338867	0.346853424072266	-0.986574371617868	0.443339447021484	0.671527465820313	-0.974438339513376	0.224436553955078	0.046510066986084	-0.782483070653513	0.206542877197266	0.0449084205627441	-0.841105552476481	0.206875686645508	0.0646740951538086	-1.00009376553877	0.254368087768555	0.0285782070159912	-1.05650218228681	0.121499992370605	0.671524108886719	-0.976220703404978	0.342654693603516	0.248972793579102	-1.3693430178581	0.522926574707031	0.959829406738281	-0.938560013097361	0.473709808349609	0.9294423828125	-0.926906494420603	-0.00162194168567657	0.934524658203125	-1.01186262540205	0.508740905761719	0.855981628417969	-0.877334129613474	0.00913939476013184	0.802195068359375	-0.945040024083689	0.184487487792969	1.7413857421875	-0.954830375951364	0.0517135238647461	0.896576965332031	-0.977493057530954	0.146746627807617	1.06349914550781	-0.979067871373728	0.347418975830078	0.0880077896118164	-1.23074972562177	0.271792083740234	1.29688208007813	-0.960250046056345	0.258697479248047	1.42802795410156	-0.985070556920603	0.408091247558594	1.05282458496094	-0.995475036901072	0.311821960449219	1.73778173828125	-0.947426178258493
72	0.71	0.534958679199219	1.19408349609375	-1.02439428346966	0.4469912109375	1.53018701171875	-1.06157175844525	0.066881462097168	1.51361511230469	-1.07965966432904	0.495944122314453	1.38722412109375	-1.0516600000224	0.328358978271484	1.66350830078125	-1.07982947939252	0.0015242395401001	1.24909924316406	-1.0836096307597	0.177568771362305	1.66682678222656	-1.08405399721478	0.253165557861328	1.56185131835937	-1.13188956850384	0.00392116594314575	0.883859497070313	-1.03214620607709	0.534269775390625	0.919466613769531	-0.976064022239195	-0.0136236743927002	1.15474584960937	-1.07468151491498	0.116859710693359	1.45515466308594	-1.17259077089642	0.377429779052734	0.214864456176758	-1.28109452455853	0.429993316650391	0.523867309570312	-0.959045841392027	0.30375732421875	1.09733837890625	-1.16599235170697	0.280933258056641	1.28061560058594	-1.19654175966595	0.322673553466797	0.0539722404479981	-1.16095719545697	0.236422119140625	1.0955927734375	-1.16169923036908	0.144081893920898	0.509855651855469	-0.983961879905211	0.431122314453125	0.406592346191406	-1.04690801637982	0.144155838012695	0.346917633056641	-0.996672802146422	0.442574310302734	0.675776000976563	-0.965098568137633	0.224966903686523	0.0455329971313477	-0.794330318625914	0.206832061767578	0.0443576583862305	-0.852832169707762	0.207097900390625	0.0648648147583008	-1.01176993959759	0.254605621337891	0.0287129745483399	-1.06839817446087	0.122375602722168	0.6715166015625	-0.97966338747357	0.343091796875	0.240294586181641	-1.35014918154095	0.523170593261719	0.961172973632813	-0.940484195884215	0.473985687255859	0.930773742675781	-0.928742626365172	-0.00174015772342682	0.937093933105469	-1.00705711000775	0.509045928955078	0.857276062011719	-0.879316730674254	0.00949371719360352	0.805001770019531	-0.93971620577191	0.184411315917969	1.74287182617187	-0.952878963645445	0.0518387298583984	0.899160766601563	-0.972924892600523	0.145169677734375	1.06453149414062	-0.978828228171812	0.346119232177734	0.0845891036987305	-1.20502384584759	0.271325439453125	1.29828588867188	-0.959270412620054	0.258417907714844	1.42945422363281	-0.983739162620054	0.406894653320312	1.05520153808594	-0.99501527040814	0.311752685546875	1.73922424316406	-0.945622738059507
73	0.72	0.534594421386719	1.195494140625	-1.0254337235197	0.446536315917969	1.53147265625	-1.06073601538982	0.0665120315551758	1.51568896484375	-1.0774001084074	0.495919250488281	1.38863891601562	-1.05166565711345	0.327949157714844	1.66469592285156	-1.07854381568279	0.000859664976596832	1.25116052246094	-1.07985028846111	0.177450714111328	1.6683369140625	-1.08220456702556	0.252653701782227	1.5632958984375	-1.13033458716716	0.00361306619644165	0.8862666015625	-1.02698821265544	0.534404052734375	0.920618591308594	-0.978086296151537	-0.0142963066101074	1.15694970703125	-1.0706371231779	0.115954574584961	1.45712744140625	-1.1706188584074	0.376774993896484	0.207908508300781	-1.25936391455974	0.429964660644531	0.527520202636719	-0.947142501901049	0.302525329589844	1.0987763671875	-1.16573696143474	0.279304901123047	1.28218041992187	-1.19566793067302	0.321993499755859	0.0535702743530274	-1.13134172828044	0.234944320678711	1.09697009277344	-1.1609726486906	0.144647079467773	0.509769226074219	-0.991531227181811	0.430701385498047	0.408499389648438	-1.0319607926115	0.14452522277832	0.347232391357422	-1.00701531226482	0.441886993408203	0.680075744628906	-0.956464805673022	0.225577194213867	0.0445364418029785	-0.806318996499438	0.207062271118164	0.0439874153137207	-0.864574576686282	0.207346771240234	0.0649632873535156	-1.02355854041423	0.254870376586914	0.0288263378143311	-1.08034763343181	0.122690361022949	0.671673400878906	-0.983415069650073	0.343098205566406	0.230173324584961	-1.32989290625896	0.523482666015625	0.962368469238281	-0.942420059274096	0.474299377441406	0.931982971191406	-0.930564735482592	-0.00181971085071564	0.939549072265625	-1.00216004187908	0.509505157470703	0.85845703125	-0.881288370202441	0.00991099071502686	0.807758361816406	-0.934244018624682	0.184478942871094	1.74417041015625	-0.950895645211596	0.0520035209655762	0.901855651855469	-0.968198501656908	0.143643829345703	1.06537963867188	-0.978598327706713	0.345280517578125	0.0824471511840821	-1.17657817847576	0.270887908935547	1.29954235839844	-0.958282043527026	0.258143402099609	1.43073754882813	-0.982458007882494	0.40536865234375	1.0577841796875	-0.994318977425951	0.311800598144531	1.74040905761719	-0.943751495431322
